<svg width="32" height="27" viewBox="0 0 32 27" fill="none" xmlns="http://www.w3.org/2000/svg">
<path d="M29.8276 5.2356H26.8998L26.2272 2.20139C25.9399 0.905253 24.8106 0 23.4808 0H13.3164C11.9867 0 10.8573 0.90519 10.57 2.20133L9.89738 5.2356H9.20263V3.94096C9.20263 3.2114 8.608 2.6178 7.87712 2.6178H3.59138C2.8605 2.6178 2.26588 3.2114 2.26588 3.94096V5.2356H2.17231C0.9745 5.2356 0 6.20843 0 7.40424V22.0919C0 23.2877 0.9745 24.2605 2.17237 24.2605H4.39406H12.2471C14.0205 25.4073 16.1329 26.0741 18.3986 26.0741C20.6643 26.0741 22.7767 25.4073 24.55 24.2605H29.8276C31.0255 24.2605 32 23.2877 32 22.0919V7.40424C32 6.20843 31.0255 5.2356 29.8276 5.2356ZM11.7904 2.47093C11.9501 1.7508 12.5776 1.24779 13.3164 1.24779H23.4807C24.2196 1.24779 24.8471 1.75073 25.0067 2.47093L25.6196 5.2356H24.55C22.7766 4.08883 20.6643 3.42204 18.3986 3.42204C16.1329 3.42204 14.0205 4.08883 12.2471 5.2356H11.1775L11.7904 2.47093ZM3.51588 3.94096C3.51588 3.89941 3.54975 3.86565 3.59138 3.86565H7.87706C7.91869 3.86565 7.95256 3.89947 7.95256 3.94096V5.2356H3.51588V3.94096ZM5.01906 23.0126V16.2357C5.01906 15.8911 4.73925 15.6118 4.39406 15.6118C4.04887 15.6118 3.76906 15.8911 3.76906 16.2357V23.0127H2.17237C1.66381 23.0127 1.25 22.5996 1.25 22.0919V7.40424C1.25 6.89649 1.66381 6.48345 2.17237 6.48345H2.89094H8.57756H10.3991H10.6496C8.43769 8.55152 7.053 11.4912 7.053 14.748C7.053 18.0049 8.43769 20.9445 10.6496 23.0126H5.01906ZM24.1692 23.0127C23.4242 23.5326 22.606 23.9547 21.7333 24.2605C20.6888 24.6265 19.5667 24.8262 18.3986 24.8262C17.2304 24.8262 16.1082 24.6264 15.0638 24.2605C14.1911 23.9547 13.373 23.5326 12.6279 23.0127C10.0154 21.1892 8.303 18.1648 8.303 14.7481C8.303 11.3314 10.0154 8.30694 12.6279 6.48352C13.3729 5.96354 14.1911 5.54145 15.0638 5.23567C16.1083 4.86967 17.2304 4.66995 18.3986 4.66995C19.5667 4.66995 20.6889 4.86973 21.7333 5.23567C22.606 5.54145 23.4241 5.96354 24.1692 6.48352C26.7817 8.30694 28.4941 11.3314 28.4941 14.7481C28.4941 18.1648 26.7817 21.1892 24.1692 23.0127ZM30.75 22.0918C30.75 22.5996 30.3363 23.0126 29.8276 23.0126H26.1475C28.3594 20.9445 29.7441 18.0049 29.7441 14.748C29.7441 11.4912 28.3594 8.55152 26.1475 6.48345H26.398H29.8276C30.3363 6.48345 30.75 6.89649 30.75 7.40424V22.0918Z" fill="#F2F2F2"/>
<path d="M18.3702 7.11108C14.1224 7.11108 10.6665 10.5669 10.6665 14.8148C10.6665 19.0626 14.1224 22.5185 18.3702 22.5185C18.9891 22.5185 19.6052 22.4448 20.2012 22.2994C20.5161 22.2226 20.709 21.9052 20.6323 21.5904C20.5555 21.2755 20.238 21.0825 19.9232 21.1594C19.4181 21.2826 18.8955 21.345 18.3702 21.345C14.7695 21.345 11.8401 18.4156 11.8401 14.8149C11.8401 11.2141 14.7695 8.28469 18.3702 8.28469C21.971 8.28469 24.9004 11.2141 24.9004 14.8149C24.9004 16.1272 24.5129 17.3926 23.7796 18.4742C23.5977 18.7424 23.6678 19.1074 23.936 19.2892C24.204 19.471 24.5691 19.401 24.751 19.1328C25.6165 17.8561 26.0739 16.363 26.0739 14.8149C26.0739 10.5669 22.618 7.11108 18.3702 7.11108Z" fill="#F2F2F2"/>
<path d="M4.74098 8.29639C3.43391 8.29639 2.37061 9.35976 2.37061 10.6668C2.37061 11.9738 3.43398 13.0371 4.74098 13.0371C6.04797 13.0371 7.11135 11.9738 7.11135 10.6668C7.11135 9.35976 6.04797 8.29639 4.74098 8.29639ZM4.74098 11.764C4.13602 11.764 3.6438 11.2718 3.6438 10.6668C3.6438 10.0619 4.13602 9.56965 4.74098 9.56965C5.34593 9.56965 5.83815 10.0619 5.83815 10.6668C5.83815 11.2718 5.346 11.764 4.74098 11.764Z" fill="#F2F2F2"/>
<path d="M23.6925 20.6248C23.6847 20.5875 23.6735 20.5502 23.6586 20.514C23.6438 20.4785 23.6255 20.4441 23.6041 20.4121C23.5828 20.3795 23.5579 20.3493 23.5306 20.3221C23.5034 20.2948 23.4726 20.2699 23.4406 20.248C23.408 20.2267 23.3736 20.2083 23.338 20.1935C23.3025 20.1787 23.2652 20.1674 23.2273 20.1597C23.1508 20.1443 23.072 20.1443 22.9956 20.1597C22.9576 20.1674 22.9202 20.1787 22.8847 20.1935C22.8491 20.2083 22.8148 20.2267 22.7822 20.248C22.7502 20.2699 22.72 20.2948 22.6921 20.3221C22.6649 20.3493 22.64 20.3795 22.6186 20.4121C22.5973 20.4441 22.5789 20.4785 22.5641 20.514C22.5493 20.5502 22.5381 20.5875 22.5303 20.6248C22.5226 20.6633 22.5186 20.7024 22.5186 20.7409C22.5186 20.7794 22.5226 20.8185 22.5303 20.8565C22.5381 20.8944 22.5493 20.9317 22.5641 20.9672C22.5789 21.0034 22.5973 21.0377 22.6186 21.0697C22.64 21.1023 22.6649 21.1325 22.6921 21.1598C22.72 21.187 22.7502 21.2119 22.7822 21.2333C22.8149 21.2546 22.8492 21.2729 22.8847 21.2878C22.9203 21.3026 22.9576 21.3138 22.9956 21.3215C23.034 21.3292 23.0726 21.3334 23.1111 21.3334C23.1502 21.3334 23.1888 21.3292 23.2273 21.3215C23.2652 21.3138 23.3025 21.3026 23.338 21.2878C23.3736 21.2729 23.408 21.2546 23.4406 21.2333C23.4726 21.2119 23.5034 21.187 23.5306 21.1598C23.6409 21.0496 23.7037 20.8967 23.7037 20.7409C23.7037 20.7024 23.7001 20.6633 23.6925 20.6248Z" fill="#F2F2F2"/>
</svg>
