<svg width="38" height="36" viewBox="0 0 38 36" fill="none" xmlns="http://www.w3.org/2000/svg">
<path d="M17.3435 1.584C17.8021 0.172661 19.7987 0.172663 20.2573 1.58401L23.5294 11.6546C23.7345 12.2857 24.3227 12.7131 24.9863 12.7131H35.5752C37.0591 12.7131 37.6761 14.612 36.4756 15.4843L27.909 21.7082C27.3721 22.0983 27.1475 22.7898 27.3526 23.4209L30.6247 33.4915C31.0833 34.9029 29.4679 36.0765 28.2674 35.2042L19.7008 28.9803C19.1639 28.5902 18.4369 28.5902 17.9 28.9803L9.33344 35.2042C8.13288 36.0765 6.51754 34.9029 6.97611 33.4915L10.2482 23.4209C10.4533 22.7898 10.2287 22.0983 9.69175 21.7082L1.12521 15.4843C-0.0753489 14.612 0.54166 12.7131 2.02563 12.7131H12.6145C13.2781 12.7131 13.8663 12.2857 14.0714 11.6546L17.3435 1.584Z" fill="#FFD336"/>
</svg>
